HIERARCHY
ROOT Hips
{
	OFFSET 0.000000 0.000000 0.000000 
	CHANNELS 6 Xposition Yposition Zposition Zrotation Yrotation Xrotation
	JOINT LeftUpLeg
	{
		OFFSET 1.363060 -1.794630 0.839290 
		CHANNELS 3 Zrotation Yrotation Xrotation
		JOINT LeftLeg
		{
			OFFSET 2.448110 -6.726130 0.000000 
			CHANNELS 3 Zrotation Yrotation Xrotation
			JOINT LeftFoot
			{
				OFFSET 2.562200 -7.039590 0.000000 
				CHANNELS 3 Zrotation Yrotation Xrotation
				JOINT LeftToeBase
				{
					OFFSET 0.157640 -0.433110 2.322550 
					CHANNELS 3 Zrotation Yrotation Xrotation
					End Site
					{
						OFFSET 0.000000 0.000000 0.000000 
					}
				}
			}
		}
	}
	JOINT RightUpLeg
	{
		OFFSET -1.305520 -1.794630 0.839290 
		CHANNELS 3 Zrotation Yrotation Xrotation
		JOINT RightLeg
		{
			OFFSET -2.542530 -6.985550 0.000000 
			CHANNELS 3 Zrotation Yrotation Xrotation
			JOINT RightFoot
			{
				OFFSET -2.568260 -7.056230 0.000000 
				CHANNELS 3 Zrotation Yrotation Xrotation
				JOINT RightToeBase
				{
					OFFSET -0.164730 -0.452590 2.363150 
					CHANNELS 3 Zrotation Yrotation Xrotation
					End Site
					{
						OFFSET 0.000000 0.000000 0.000000 
					}
				}
			}
		}
	}
	JOINT Spine
	{
		OFFSET 0.028270 2.035590 -0.193380 
		CHANNELS 3 Zrotation Yrotation Xrotation
		JOINT Spine1
		{
			OFFSET 0.056720 2.048850 -0.042750 
			CHANNELS 3 Zrotation Yrotation Xrotation
			JOINT Neck1
			{
				OFFSET -0.054170 1.746240 0.172020 
				CHANNELS 3 Zrotation Yrotation Xrotation
				JOINT Head
				{
					OFFSET 0.104070 1.761360 -0.123970 
					CHANNELS 3 Zrotation Yrotation Xrotation
					End Site
					{
						OFFSET 0.000000 0.000000 0.000000 
					}
				}
			}
			JOINT LeftArm
			{
				OFFSET 3.362410 1.200890 -0.311210 
				CHANNELS 3 Zrotation Yrotation Xrotation
				JOINT LeftForeArm
				{
					OFFSET 4.983000 -0.000000 -0.000000 
					CHANNELS 3 Zrotation Yrotation Xrotation
					JOINT LeftHand
					{
						OFFSET 3.483560 -0.000000 -0.000000 
						CHANNELS 3 Zrotation Yrotation Xrotation
						JOINT LeftHandIndex1
						{
							OFFSET 0.715260 -0.000000 -0.000000 
							CHANNELS 3 Zrotation Yrotation Xrotation
							End Site
							{
								OFFSET 0.000000 0.000000 0.000000 
							}
						}
					}
				}
			}
			JOINT RightArm
			{
				OFFSET -3.136600 1.374050 -0.404650 
				CHANNELS 3 Zrotation Yrotation Xrotation
				JOINT RightForeArm
				{
					OFFSET -5.241900 -0.000000 -0.000000 
					CHANNELS 3 Zrotation Yrotation Xrotation
					JOINT RightHand
					{
						OFFSET -3.444170 -0.000000 -0.000000 
						CHANNELS 3 Zrotation Yrotation Xrotation
						JOINT RightHandIndex1
						{
							OFFSET -0.622530 -0.000000 -0.000000 
							CHANNELS 3 Zrotation Yrotation Xrotation
							End Site
							{
								OFFSET 0.000000 0.000000 0.000000 
							}
						}
					}
				}
			}
		}
	}
}
MOTION
Frames: 12
Frame Time: 0.041667
10.679426 16.820827 -25.140776 -4.188505 -2.720636 20.750326 5.666595 -0.691643 -43.386711 7.154841 17.663546 48.708155 2.183835 -0.840360 2.769984 5.739800 -14.171400 -43.928300 -9.132374 8.048905 -30.506362 -1.444516 -10.598010 26.537138 0.702966 -8.475054 13.938117 -2.780100 10.330300 -30.053200 0.590895 -2.430829 -1.671820 -1.102627 -1.377857 -0.307930 4.905405 10.183189 10.141484 -8.085600 5.501500 1.426900 -2.555907 -29.867988 33.074155 41.129340 -40.407065 -27.214482 0.108085 -6.505585 -13.049080 -7.125000 0.000000 0.000000 48.814172 1.012549 46.102209 -11.770701 21.718891 -5.009812 -1.499189 -1.067366 6.659151 7.125000 0.000000 0.000000 
10.696330 16.805013 -25.146338 -4.397393 -2.585362 20.826737 5.895823 -0.822437 -43.607692 7.256003 17.750184 48.972111 2.193112 -0.896469 2.541982 5.832600 -14.264100 -44.306200 -8.996268 8.062548 -30.586924 -1.454585 -10.628798 26.601009 0.873843 -8.771055 13.818869 -2.815900 10.390900 -30.252000 0.609982 -2.352880 -1.669953 -1.092056 -1.327176 -0.569230 4.770828 10.430378 9.784104 -8.416300 5.531700 1.027800 -2.271358 -30.115172 32.544711 43.054845 -41.434504 -29.283566 0.314020 -6.674036 -13.558765 -7.125000 0.000000 0.000000 48.250490 0.638467 46.387091 -11.269987 21.401389 -4.931925 -1.817854 -1.081469 7.340340 7.125000 0.000000 0.000000 
10.711816 16.793017 -25.149501 -4.493483 -2.470480 20.968390 5.982111 -0.897259 -43.878626 7.333953 17.819819 49.200284 2.228344 -1.013873 2.347605 5.835900 -14.267400 -44.319500 -8.951434 8.045858 -30.719030 -1.486697 -10.677433 26.689286 1.089514 -9.142744 13.612029 -2.930100 10.581000 -30.879300 0.597994 -2.237745 -1.671179 -1.210510 -1.249796 -0.383602 4.961455 10.198763 9.875836 -8.204900 5.441400 1.181000 -1.775187 -30.574603 31.804231 45.079840 -42.456720 -31.412809 0.509884 -6.755415 -13.809529 -7.125000 0.000000 0.000000 47.787462 0.408021 46.616150 -10.776861 21.049058 -4.830535 -2.048016 -1.175235 8.068099 7.125000 0.000000 0.000000 
10.726103 16.781784 -25.153100 -4.572334 -2.348452 21.086738 6.038728 -0.905287 -44.137537 7.416970 17.885344 49.440753 2.271661 -1.156716 2.215929 5.808600 -14.240300 -44.208600 -8.909875 8.025225 -30.833750 -1.510874 -10.728980 26.820298 1.121942 -9.168057 13.447756 -2.948100 10.610600 -30.977600 0.587569 -2.161962 -1.659614 -1.391509 -1.186093 -0.347337 4.947382 10.326450 9.739649 -8.303600 5.463400 1.052300 -1.441782 -30.945338 31.041406 46.995067 -43.408157 -33.398097 0.612123 -6.638276 -13.782680 -7.125000 0.000000 0.000000 47.230145 0.111029 47.160885 -10.432126 20.870302 -4.790063 -2.258131 -1.212857 8.110554 7.125000 0.000000 0.000000 
10.737009 16.765862 -25.156481 -4.714198 -2.063282 21.221220 6.232817 -1.042277 -44.460717 7.503291 17.968139 49.678899 2.312583 -1.306416 2.112217 5.865800 -14.297000 -44.440800 -8.755393 7.887614 -30.972698 -1.548614 -10.791040 27.005594 1.241753 -9.343030 13.231375 -2.999200 10.693800 -31.253900 0.597437 -2.147016 -1.665979 -1.388879 -1.165569 -0.200041 5.166231 9.981420 10.008935 -7.968200 5.373200 1.263200 -1.168816 -31.139815 30.352565 49.082560 -44.372558 -35.641213 0.723307 -6.624852 -13.996290 -7.125000 0.000000 0.000000 46.528485 -0.063419 47.385591 -9.976935 20.565120 -4.728371 -2.518183 -1.292164 8.310231 7.125000 0.000000 0.000000 
10.742244 16.747431 -25.163570 -4.827027 -1.748513 21.381743 6.431786 -1.217154 -44.845166 7.587652 18.055376 49.917618 2.362769 -1.481511 1.973724 5.896100 -14.326900 -44.563300 -8.624796 7.763647 -31.149101 -1.599861 -10.866306 27.205914 1.427847 -9.652013 13.056025 -3.110900 10.872500 -31.851000 0.606058 -2.033111 -1.674999 -1.385416 -1.093360 -0.326532 5.151710 9.954059 9.868529 -8.015100 5.326900 1.074100 -0.705293 -31.366406 29.903092 51.389978 -45.470881 -38.212738 0.900743 -6.846459 -14.969136 -7.125000 0.000000 0.000000 45.875499 -0.325741 47.419309 -9.471789 20.186676 -4.628605 -2.740149 -1.394307 8.631457 7.125000 0.000000 0.000000 
10.745079 16.732490 -25.171640 -4.848347 -1.631628 21.434887 6.474613 -1.260864 -45.090461 7.656461 18.114485 50.125884 2.388521 -1.586452 1.880048 5.821400 -14.253000 -44.260600 -8.631704 7.792198 -31.261729 -1.648026 -10.945743 27.417765 1.451972 -9.669790 12.958568 -3.148100 10.931100 -32.047900 0.599980 -1.852549 -1.672704 -1.413231 -0.986688 -0.524429 5.049465 10.029368 9.552493 -8.237700 5.280300 0.764300 -0.251778 -31.562913 29.533400 53.564222 -46.512078 -40.630762 1.055405 -6.981658 -16.014845 -7.125000 0.000000 0.000000 45.172093 -0.541771 47.735836 -9.144434 19.958036 -4.573257 -2.933364 -1.406659 8.468660 7.125000 0.000000 0.000000 
10.749878 16.723765 -25.179383 -4.746774 -1.585740 21.446613 6.376635 -1.328771 -45.239470 7.691488 18.159271 50.277458 2.378500 -1.593291 1.787474 5.776600 -14.208400 -44.078600 -8.735873 7.752690 -31.342268 -1.694340 -11.008514 27.620786 1.294512 -9.351787 12.910219 -3.069500 10.806700 -31.630600 0.587111 -1.720710 -1.658235 -1.441311 -0.899742 -0.571532 5.017981 10.021443 9.394494 -8.294800 5.232400 0.604200 -0.056353 -31.784561 28.995306 55.430994 -47.423201 -42.726022 1.184485 -6.977701 -16.580821 -7.125000 0.000000 0.000000 44.352246 -0.678037 47.866935 -8.905466 19.839559 -4.567816 -3.109010 -1.412866 8.434907 7.125000 0.000000 0.000000 
10.754022 16.715804 -25.185381 -4.596453 -1.396220 21.464220 6.276683 -1.516157 -45.369583 7.707400 18.208942 50.393031 2.406031 -1.675425 1.617429 5.862400 -14.293600 -44.426800 -8.817364 7.546693 -31.383277 -1.744874 -11.045885 27.771803 1.214420 -9.186194 12.866708 -3.013400 10.716800 -31.330500 0.574895 -1.677035 -1.633035 -1.593196 -0.846175 -0.542426 4.983180 9.979463 9.259229 -8.370900 5.172100 0.424600 0.023889 -32.063767 28.305677 57.156531 -48.302294 -44.712119 1.323887 -6.973643 -16.791406 -7.125000 0.000000 0.000000 43.596970 -0.845755 47.845042 -8.798003 19.882546 -4.612017 -3.218129 -1.402976 8.601969 7.125000 0.000000 0.000000 
10.755549 16.708170 -25.187344 -4.547048 -1.040952 21.413490 6.329945 -1.778085 -45.451709 7.729110 18.263951 50.495213 2.467995 -1.842600 1.515053 5.922100 -14.352400 -44.668400 -8.736646 7.256137 -31.327168 -1.794593 -11.066453 27.877613 1.387059 -9.492629 12.764659 -3.127300 10.898300 -31.937700 0.567943 -1.696546 -1.611636 -1.876891 -0.819633 -0.491586 4.926813 9.954713 9.144279 -8.489900 5.123100 0.358100 0.107830 -32.134595 27.632555 59.147045 -49.294725 -47.049434 1.482000 -7.028712 -16.837071 -7.125000 0.000000 0.000000 42.958031 -0.938935 47.816199 -8.707982 19.914057 -4.651151 -3.338867 -1.353367 8.484853 7.125000 0.000000 0.000000 
10.754567 16.699336 -25.191161 -4.660022 -0.802253 21.467267 6.530132 -1.926603 -45.631966 7.778548 18.314460 50.620200 2.500522 -1.956734 1.499295 5.876700 -14.307700 -44.484700 -8.578946 7.167144 -31.389235 -1.849494 -11.114609 27.930451 1.968716 -10.578992 12.641020 -3.511300 11.480000 -33.916400 0.565695 -1.661769 -1.614241 -2.006156 -0.782085 -0.370964 5.025662 9.888883 9.315077 -8.260900 5.137600 0.635000 0.196812 -31.909937 26.979381 61.319763 -50.337111 -49.630903 1.643640 -7.117061 -17.091769 -7.125000 0.000000 0.000000 42.085867 -0.855344 47.961918 -8.490772 19.748646 -4.606302 -3.470738 -1.303424 8.201579 7.125000 0.000000 0.000000 
10.750205 16.688539 -25.196178 -4.857999 -0.673351 21.685211 6.780174 -1.919653 -45.944856 7.853600 18.361385 50.779134 2.526167 -2.055100 1.417631 5.861500 -14.292700 -44.423200 -8.416073 7.244385 -31.614125 -1.894678 -11.195914 28.014461 2.523287 -11.602137 12.430329 -3.833600 11.935700 -35.504700 0.567632 -1.523200 -1.605913 -1.981643 -0.702172 -0.175423 5.228169 9.479083 9.522320 -7.881200 4.995600 0.777700 0.418937 -31.629970 26.246538 63.508280 -51.418709 -52.202642 1.771383 -7.174509 -17.388074 -7.125000 0.000000 0.000000 40.977322 -0.647458 48.084216 -8.270436 19.575284 -4.552138 -3.587528 -1.231389 7.919896 7.125000 0.000000 0.000000 
